<svg  viewBox="0 0 1920 990" fill="none" xmlns="http://www.w3.org/2000/svg">
<path d="M0 45.0003C0 45.0003 197 107 438.5 45.0003C680 -16.9999 703.5 64.7234 1010.5 45.0003C1317.5 25.2771 1249 -30.5 1497.5 22.2232C1746 74.9465 1920 45.0003 1920 45.0003V945C1920 945 1674 875 1478.25 945C1282.5 1015 1285 992.5 1036.5 945C788 897.501 602 1015.5 418.5 945C235 874.501 0 945 0 945V45.0003Z" fill="#FF01B8"/>
<path d="M0 45.0003C0 45.0003 197 107 438.5 45.0003C680 -16.9999 703.5 64.7234 1010.5 45.0003C1317.5 25.2771 1249 -30.5 1497.5 22.2232C1746 74.9465 1920 45.0003 1920 45.0003V945C1920 945 1674 875 1478.25 945C1282.5 1015 1285 992.5 1036.5 945C788 897.501 602 1015.5 418.5 945C235 874.501 0 945 0 945V45.0003Z" fill="url(#paint0_linear_14_44)"/>
<defs>
<linearGradient id="paint0_linear_14_44" x1="-0.000320077" y1="45.0007" x2="1920" y2="945" gradientUnits="userSpaceOnUse">
<stop stop-color="#AD00FF"/>
<stop stop-color="#BB2CFF" stop-opacity="0.827679"/>
<stop offset="1" stop-color="white" stop-opacity="0"/>
</linearGradient>
</defs>
</svg>
