<svg width="784" height="511" viewBox="0 0 784 511" fill="none" xmlns="http://www.w3.org/2000/svg">
<path fill-rule="evenodd" clip-rule="evenodd" d="M127.203 35.7318H190.098C212.938 6.09274 252.735 -18.5217 396.822 19.1163C466.576 65.1432 503.979 48.9535 541.454 32.7326C578.967 16.4958 616.551 0.227757 686.726 46.2968C755.675 91.5608 748.868 100.453 735.445 117.99C721.558 136.133 700.589 163.529 749.1 250.024C798.312 316.253 786.755 321.195 766.188 329.988C745.312 338.913 715.154 351.807 729.831 436.78C730.054 438.068 730.264 439.336 730.463 440.583H774.204C779.339 440.583 783.502 444.746 783.502 449.88C783.502 455.015 779.339 459.178 774.204 459.178H732.685C737.8 530.1 690.904 513.84 626.564 491.532C573.682 473.196 509.015 450.775 451.76 469.32C318.293 512.55 232.853 436.78 232.853 436.78C232.853 436.78 208.44 476.911 134.909 376.348H110.299C106.798 376.348 103.96 373.51 103.96 370.009C103.96 366.508 106.798 363.67 110.299 363.67H125.904C98.5347 323.813 84.1961 280.171 79.8564 239.425H49.0217C46.6877 239.425 44.7957 237.533 44.7957 235.199C44.7957 232.865 46.6877 230.973 49.0217 230.973H79.0954C78.7181 225.843 78.4994 220.767 78.4329 215.76H15.6362C7.00059 215.76 0 208.759 0 200.123C0 191.488 7.00058 184.487 15.6362 184.487H80.0609C86.2611 133.061 109.442 93.6066 141.148 84.7535C157.939 80.0651 167.1 69.2512 175.573 56.8618H127.203C121.368 56.8618 116.638 52.1317 116.638 46.2968C116.638 40.4619 121.368 35.7318 127.203 35.7318Z" fill="#FF01B8"/>
<path fill-rule="evenodd" clip-rule="evenodd" d="M127.203 35.7318H190.098C212.938 6.09274 252.735 -18.5217 396.822 19.1163C466.576 65.1432 503.979 48.9535 541.454 32.7326C578.967 16.4958 616.551 0.227757 686.726 46.2968C755.675 91.5608 748.868 100.453 735.445 117.99C721.558 136.133 700.589 163.529 749.1 250.024C798.312 316.253 786.755 321.195 766.188 329.988C745.312 338.913 715.154 351.807 729.831 436.78C730.054 438.068 730.264 439.336 730.463 440.583H774.204C779.339 440.583 783.502 444.746 783.502 449.88C783.502 455.015 779.339 459.178 774.204 459.178H732.685C737.8 530.1 690.904 513.84 626.564 491.532C573.682 473.196 509.015 450.775 451.76 469.32C318.293 512.55 232.853 436.78 232.853 436.78C232.853 436.78 208.44 476.911 134.909 376.348H110.299C106.798 376.348 103.96 373.51 103.96 370.009C103.96 366.508 106.798 363.67 110.299 363.67H125.904C98.5347 323.813 84.1961 280.171 79.8564 239.425H49.0217C46.6877 239.425 44.7957 237.533 44.7957 235.199C44.7957 232.865 46.6877 230.973 49.0217 230.973H79.0954C78.7181 225.843 78.4994 220.767 78.4329 215.76H15.6362C7.00059 215.76 0 208.759 0 200.123C0 191.488 7.00058 184.487 15.6362 184.487H80.0609C86.2611 133.061 109.442 93.6066 141.148 84.7535C157.939 80.0651 167.1 69.2512 175.573 56.8618H127.203C121.368 56.8618 116.638 52.1317 116.638 46.2968C116.638 40.4619 121.368 35.7318 127.203 35.7318Z" fill="url(#paint0_linear_6_17)"/>
<defs>
<linearGradient id="paint0_linear_6_17" x1="734.057" y1="477.772" x2="151.291" y2="46.2968" gradientUnits="userSpaceOnUse">
<stop stop-color="#AD00FF"/>
<stop offset="1" stop-color="white" stop-opacity="0"/>
</linearGradient>
</defs>
</svg>
